<?xml version="1.0" encoding="UTF-8" standalone="no"?>
<!-- Created with Inkscape (http://www.inkscape.org/) -->
<svg xmlns:dc="http://purl.org/dc/elements/1.1/" xmlns:cc="http://creativecommons.org/ns#" xmlns:rdf="http://www.w3.org/1999/02/22-rdf-syntax-ns#" xmlns:svg="http://www.w3.org/2000/svg" xmlns="http://www.w3.org/2000/svg" xmlns:xlink="http://www.w3.org/1999/xlink" xmlns:sodipodi="http://sodipodi.sourceforge.net/DTD/sodipodi-0.dtd" xmlns:inkscape="http://www.inkscape.org/namespaces/inkscape" id="svg2494" sodipodi:version="0.32" inkscape:version="0.46" width="419" height="419" version="1.0" sodipodi:docname="bzicon-red.svg" inkscape:output_extension="org.inkscape.output.svg.inkscape">
  <metadata id="metadata2499">
    <rdf:RDF>
      <cc:Work rdf:about="">
        <dc:format>image/svg+xml</dc:format>
        <dc:type rdf:resource="http://purl.org/dc/dcmitype/StillImage"/>
      </cc:Work>
    </rdf:RDF>
  </metadata>
  <defs id="defs2497">
    <linearGradient inkscape:collect="always" id="linearGradient3373">
      <stop style="stop-color: rgb(255, 255, 255); stop-opacity: 1;" offset="0" id="stop3375"/>
      <stop style="stop-color: rgb(255, 255, 255); stop-opacity: 0;" offset="1" id="stop3377"/>
    </linearGradient>
    <linearGradient id="linearGradient3342">
      <stop style="stop-color: rgb(255, 255, 255); stop-opacity: 1;" offset="0" id="stop3344"/>
      <stop style="stop-color: rgb(255, 11, 11); stop-opacity: 1;" offset="1" id="stop3346"/>
    </linearGradient>
    <inkscape:perspective sodipodi:type="inkscape:persp3d" inkscape:vp_x="-1018.8177 : 526.18109 : 1" inkscape:vp_y="1.6148039e-13 : 1000 : 0" inkscape:vp_z="943.48969 : 526.18109 : 1" inkscape:persp3d-origin="-37.663983 : 350.78739 : 1" id="perspective2501"/>
    <linearGradient inkscape:collect="always" xlink:href="#linearGradient3373" id="linearGradient2396" gradientUnits="userSpaceOnUse" x1="209.5" y1="80.932663" x2="209.5" y2="277.81219"/>
    <radialGradient inkscape:collect="always" xlink:href="#linearGradient3342" id="radialGradient2400" gradientUnits="userSpaceOnUse" gradientTransform="matrix(1.21944, -0.580846, 0.753692, 1.58231, -323.403, -81.8764)" cx="269.40851" cy="398.42807" fx="269.40851" fy="398.42807" r="202.86546"/>
  </defs>
  <sodipodi:namedview inkscape:window-height="686" inkscape:window-width="758" inkscape:pageshadow="2" inkscape:pageopacity="0.0" guidetolerance="10.0" gridtolerance="10.0" objecttolerance="10.0" borderopacity="1.0" bordercolor="#666666" pagecolor="#ffffff" id="base" showgrid="false" showguides="true" inkscape:guide-bbox="true" inkscape:zoom="1" inkscape:cx="164.49314" inkscape:cy="197.13308" inkscape:window-x="590" inkscape:window-y="43" inkscape:current-layer="svg2494">
    <inkscape:grid type="xygrid" id="grid2559"/>
  </sodipodi:namedview>
  <path id="path2570" d="M 51.917007,6.6345382 L 366.12968,6.6345382 L 412.36546,52.933877 L 412.36546,367.14655 L 367.08299,412.36546 L 49.819714,412.36546 L 6.6345382,369.11673 L 6.6345382,51.853453 L 51.917007,6.6345382 z" style="fill: url(#radialGradient2400) rgb(0, 0, 0); fill-opacity: 1;" sodipodi:nodetypes="ccccccccc"/>
  <path sodipodi:nodetypes="ccccccccccccccccccccccccccccccccccccccccccccccccccccccccccscccccssccccssc" id="path2402" d="M 189,30 L 189,179.875 L 192.75,179.1875 C 197.71564,178.27762 221.62447,178.29843 225.75,179.21875 L 229,179.9375 L 229,30 L 189,30 z M 80.4375,57 L 66,71.5625 L 66,368.78125 L 80.5,382.96875 L 120.4375,383 L 134,369.5625 L 134.08898,357.84137 C 123.63625,352.03023 115.2025,339.73267 106,332.34375 L 106,148.46875 L 132.4375,124 C 132.76654,110.48935 133.80888,86.090528 134,70.5625 L 120.5625,57 L 80.4375,57 z M 298.4375,57 L 284,71.5625 L 285.65625,124 C 294.84338,132.17334 301.99838,139.42827 312,148.40625 L 312,332.46875 L 285.75,357 C 282.28044,358.79386 284.50797,365.57593 284,369.03125 L 298.3125,383 L 338.4375,383 L 352,369.5625 L 352,70.5625 L 338.5625,57 L 298.4375,57 z M 138.5,139 L 121,156 L 121,325.46875 L 137.46875,342 L 158,342 L 158,359 L 196,359 L 196,342 L 230,342 L 230,358 L 260,358 L 260,342 L 280.75,342 L 297,325.875 L 297,155.53125 L 280.53125,139 L 244,139 L 244,186.71875 L 253.28125,196.09375 C 270.64439,213.66812 271,215.12511 271,267.90625 L 271,308.40625 L 263.59375,316 L 154.40625,316 L 146.875,308.28125 L 147.21875,265.90625 C 147.55037,225.368 147.65463,223.24676 149.71875,217.75 C 152.85323,209.40287 158.16627,201.99533 166.59375,194.125 L 174,187.1875 L 174,139 L 138.5,139 z M 207.28125,193 C 203.10019,193.10465 198.99596,193.72191 195.3125,194.84375 C 182.94892,198.60922 173.14802,206.63329 167.15625,217.875 C 161.71744,228.07924 161.05068,233.73674 161.03125,269.25 L 161,301 L 256,301 L 256,266.65625 C 256,230.303 255.86648,228.99512 250.96875,218.5 C 247.37789,210.80534 235.95964,200.15622 227.4375,196.5625 C 221.45329,194.03899 214.24968,192.82559 207.28125,193 z" style="opacity: 0.783688; fill: rgb(39, 39, 39); fill-opacity: 1;"/>
  <path sodipodi:nodetypes="ccccccc" style="fill: url(#linearGradient2396) rgb(0, 0, 0); fill-opacity: 1; stroke: none; stroke-width: 7; stroke-linecap: round; stroke-linejoin: miter; stroke-miterlimit: 4; stroke-dasharray: none; stroke-dashoffset: 0pt; stroke-opacity: 1;" d="M 51.90625,6.625 L 6.625,51.84375 L 6.625,196.9995 C 145.88874,289.74648 271.58437,133.10859 412.375,197.78075 L 412.375,52.9375 L 366.125,6.625 L 51.90625,6.625 z" id="path3366"/>
  <path style="fill: rgb(0, 0, 0);" d="M 50.5,0 L 0,50.5 L 0,370.5 L 48.5,419 L 368.5,419 L 419,368.5 L 419,51.5 L 367.5,0 L 50.5,0 z M 54.53125,10 L 363.53125,10 L 409,55.53125 L 409,364.53125 L 364.46875,409 L 52.46875,409 L 10,366.46875 L 10,54.46875 L 54.53125,10 z" id="path2565"/>
  <path sodipodi:nodetypes="ccccccccccccccccccccccccccccccccccccccccccccccccccccccccccscccccssccccssc" id="path3383" d="M 189,30 L 189,179.875 L 192.75,179.1875 C 197.71564,178.27762 221.62447,178.29843 225.75,179.21875 L 229,179.9375 L 229,30 L 189,30 z M 80.4375,57 L 66,71.5625 L 66,368.78125 L 80.5,382.96875 L 120.4375,383 L 134,369.5625 L 134.08898,357.84137 C 123.63625,352.03023 115.2025,339.73267 106,332.34375 L 106,148.46875 L 132.4375,124 C 132.76654,110.48935 133.80888,86.090528 134,70.5625 L 120.5625,57 L 80.4375,57 z M 298.4375,57 L 284,71.5625 L 285.65625,124 C 294.84338,132.17334 301.99838,139.42827 312,148.40625 L 312,332.46875 L 285.75,357 C 282.28044,358.79386 284.50797,365.57593 284,369.03125 L 298.3125,383 L 338.4375,383 L 352,369.5625 L 352,70.5625 L 338.5625,57 L 298.4375,57 z M 138.5,139 L 121,156 L 121,325.46875 L 137.46875,342 L 158,342 L 158,359 L 196,359 L 196,342 L 230,342 L 230,358 L 260,358 L 260,342 L 280.75,342 L 297,325.875 L 297,155.53125 L 280.53125,139 L 244,139 L 244,186.71875 L 253.28125,196.09375 C 270.64439,213.66812 271,215.12511 271,267.90625 L 271,308.40625 L 263.59375,316 L 154.40625,316 L 146.875,308.28125 L 147.21875,265.90625 C 147.55037,225.368 147.65463,223.24676 149.71875,217.75 C 152.85323,209.40287 158.16627,201.99533 166.59375,194.125 L 174,187.1875 L 174,139 L 138.5,139 z M 207.28125,193 C 203.10019,193.10465 198.99596,193.72191 195.3125,194.84375 C 182.94892,198.60922 173.14802,206.63329 167.15625,217.875 C 161.71744,228.07924 161.05068,233.73674 161.03125,269.25 L 161,301 L 256,301 L 256,266.65625 C 256,230.303 255.86648,228.99512 250.96875,218.5 C 247.37789,210.80534 235.95964,200.15622 227.4375,196.5625 C 221.45329,194.03899 214.24968,192.82559 207.28125,193 z" style="opacity: 0.528369; fill: rgb(0, 0, 0); fill-opacity: 1;"/>
</svg>
