/* XPM */
static char *32x32[] = {
/* columns rows colors chars-per-pixel */
"32 32 151 2",
"   c #400000",
".  c #43080F",
"X  c #590B15",
"o  c #5B0B15",
"O  c #5D0B16",
"+  c #600B17",
"@  c #600C17",
"#  c #600C18",
"$  c #670C18",
"%  c #670D19",
"&  c #680D19",
"*  c #710D1B",
"=  c #730D1A",
"-  c #720E1C",
";  c #760E1C",
":  c #770E1C",
">  c #790E1C",
",  c #7A0E1C",
"<  c #7B0F1D",
"1  c #7C0F1D",
"2  c #7D0E1D",
"3  c #7D0F1E",
"4  c #7E0F1E",
"5  c #7F0F1E",
"6  c #78101E",
"7  c #7B101E",
"8  c #7E101F",
"9  c #820F1F",
"0  c #830F1F",
"q  c #80101F",
"w  c #81101F",
"e  c #881020",
"r  c #891222",
"t  c #8A1121",
"y  c #8B1121",
"u  c #8E1122",
"i  c #8F1122",
"p  c #8F1222",
"a  c #901122",
"s  c #911122",
"d  c #901222",
"f  c #911223",
"g  c #921122",
"h  c #921222",
"j  c #921223",
"k  c #931223",
"l  c #911425",
"z  c #941223",
"x  c #951224",
"c  c #961224",
"v  c #971224",
"b  c #971325",
"n  c #981224",
"m  c #981324",
"M  c #991224",
"N  c #991225",
"B  c #9A1224",
"V  c #9A1324",
"C  c #9B1325",
"Z  c #9C1325",
"A  c #9E1225",
"S  c #9E1325",
"D  c #9F1225",
"F  c #9E1326",
"G  c #9F1326",
"H  c #9F1426",
"J  c #981728",
"K  c #A21326",
"L  c #A61427",
"P  c #A61428",
"I  c #A81428",
"U  c #A91428",
"Y  c #A91429",
"T  c #AD1328",
"R  c #AC1428",
"E  c #AD1428",
"W  c #AD152A",
"Q  c #AF152A",
"!  c #AC1D31",
"~  c #B0152A",
"^  c #B2152A",
"/  c #B4162B",
"(  c #B6162B",
")  c #B6162C",
"_  c #B7162C",
"`  c #B8162B",
"'  c #B8162C",
"]  c #B9162C",
"[  c #B9172D",
"{  c #BA162C",
"}  c #BB162C",
"|  c #BB162D",
" . c #BB172C",
".. c #BB172D",
"X. c #BC162C",
"o. c #BC162D",
"O. c #BD172D",
"+. c #BE172D",
"@. c #BE172E",
"#. c #B21E32",
"$. c #B22336",
"%. c #BA2337",
"&. c #BE2539",
"*. c #C0172E",
"=. c #C1172E",
"-. c #C2172E",
";. c #C5172F",
":. c #C3182E",
">. c #C3182F",
",. c #C6182F",
"<. c #C7182F",
"1. c #C71830",
"2. c #C91830",
"3. c #CA1830",
"4. c #CB1830",
"5. c #CC1830",
"6. c #CD1931",
"7. c #CE1931",
"8. c #CF1831",
"9. c #CF1931",
"0. c #D01931",
"q. c #D21932",
"w. c #D31932",
"e. c #D41932",
"r. c #D51A32",
"t. c #D51A33",
"y. c #D61A33",
"u. c #D71A33",
"i. c #D81A34",
"p. c #D91A34",
"a. c #DB1A34",
"s. c #DD1A34",
"d. c #C2273C",
"f. c #C52238",
"g. c #C52339",
"h. c #C1293D",
"j. c #E01B35",
"k. c #E01B36",
"l. c #E21B36",
"z. c #E41C37",
"x. c #E61C37",
"c. c #C72A40",
"v. c #CB2C41",
"b. c #DB2A42",
"n. c #E12B43",
"m. c #E12C44",
"M. c #E02F47",
"N. c #E22C45",
"B. c #E42D46",
"V. c #EA2F48",
"C. c None",
/* pixels */
"C.C.C.C.C.C.C.C.C.C.C.C.C.C.C.C.C.C.C.C.C.C.C.C.C.C.C.C.C.C.C.C.",
"C.C.C.C.C.C.C.C.C.C.C.C.C.C.C.C.C.C.C.C.C.C.C.C.C.C.C.C.C.C.C.C.",
"C.C.C.C.C.C.C.C.C.C.C.C.C.C.C.C.C.C.C.C.C.C.C.C.C.C.C.C.C.C.C.C.",
"C.C.C.C.C.C.C.C.C.C.C.C.C.C.C.C.C.C.C.C.C.C.C.C.C.C.C.C.C.C.C.C.",
"C.C.C.C.C.C.C.C.C.C.C.C.C.C.C.C.C.C.C.C.C.C.C.C.C.C.C.C.C.C.C.C.",
"C.C.C.C.C.C.C.C.C.C.C.C.C.C.C.C.C.C.C.C.C.C.C.C.C.C.C.C.C.C.C.C.",
"C.C.C.C.C.C.C.C.C.C.C.C.C.C.C.C.C.C.C.C.C.C.C.C.C.C.C.C.C.C.C.C.",
"C.C.C.C.C.C.C.C.C.C.C.C.C.C.C.C.C.C.C.C.C.C.C.C.C.C.C.C.C.C.C.C.",
"C.C.C.C.C.C.C.C.C.C.C.C.C.C.C.C.C.C.C.C.C.C.C.C.C.C.C.C.C.C.C.C.",
"C.C.C.C.C.5 E T S L I S S V 6 C.C.C.C.C.C.C.C.C.C.C.C.C.C.C.C.C.",
"C.C.C.C.C.x p / ) -.-.o.....O...K C.C.C.C.C.C.C.C.C.C.C.C.C.C.C.",
"7 S ^ E 8 f t / ..o.-.-.<.8.8.8.3.K C.C.C.C.C.C.C.C.C.C.C.C.C.C.",
", B B ) w.O.x ^ ) ..O.:.<.3.8.8.m.%.! C.C.C.C.C.C.C.C.C.C.C.C.C.",
"C.B B B x K ..<.8.;.o.o.<.3.^ q 5 p g.m.m.c.&.C.C.C.C.C.C.C.C.C.",
"C.x x B B B x x S ` q.8...E P ) :.O.x p t t #.b.V.v.h.$.C.C.C.C.",
"C.$ z z x x x x x x z S p.l...t.w.w.q.q.q.p./ f p 7 J g.B.b.h.C.",
"C.C.5 f f z z z z z z z S l.x.-.:.s.s.s.t.8.1.8...8 C.C.C.= f C.",
"C.C.C.0 a a a f f z f f f p ..z.l.:.q.8.-.P P H & C.C.C.C.C.C.C.",
"C.C.C.C.$ 0 f f a a a a f f p 3.y.Q P p - 5 S O C.C.C.C.C.C.C.C.",
"C.C.C.C.C.C.O 5 a a u a u u p B b o O . - C.C.C.C.C.C.C.C.C.C.C.",
"C.C.C.C.C.C.C.C.+ 5 f p p p p : O C.C.C.C.C.C.C.C.C.C.C.C.C.C.C.",
"C.C.C.C.C.C.C.C.C.C.o , 5 : C.C.C.C.C.C.C.C.C.C.C.C.C.C.C.C.C.C.",
"C.C.C.C.C.C.C.C.C.C.C.C.C.C.C.C.C.C.C.C.C.C.C.C.C.C.C.C.C.C.C.C.",
"C.C.C.C.C.C.C.C.C.C.C.C.C.C.C.C.C.C.C.C.C.C.C.C.C.C.C.C.C.C.C.C.",
"C.C.C.C.C.C.C.C.C.C.C.C.C.C.C.C.C.C.C.C.C.C.C.C.C.C.C.C.C.C.C.C.",
"C.C.C.C.C.C.C.C.C.C.C.C.C.C.C.C.C.C.C.C.C.C.C.C.C.C.C.C.C.C.C.C.",
"C.C.C.C.C.C.C.C.C.C.C.C.C.C.C.C.C.C.C.C.C.C.C.C.C.C.C.C.C.C.C.C.",
"C.C.C.C.C.C.C.C.C.C.C.C.C.C.C.C.C.C.C.C.C.C.C.C.C.C.C.C.C.C.C.C.",
"C.C.C.C.C.C.C.C.C.C.C.C.C.C.C.C.C.C.C.C.C.C.C.C.C.C.C.C.C.C.C.C.",
"C.C.C.C.C.C.C.C.C.C.C.C.C.C.C.C.C.C.C.C.C.C.C.C.C.C.C.C.C.C.C.C.",
"C.C.C.C.C.C.C.C.C.C.C.C.C.C.C.C.C.C.C.C.C.C.C.C.C.C.C.C.C.C.C.C.",
"C.C.C.C.C.C.C.C.C.C.C.C.C.C.C.C.C.C.C.C.C.C.C.C.C.C.C.C.C.C.C.C."
};
