/* XPM */
static char * bzflag_3_xpm[] = {
"32 32 5 1",
" 	c None",
".	c #FFFFFF",
"+	c #C0C0C0",
"@	c #808080",
"#	c #000000",
"................................",
"+@@@@@@@@@@@      @@@@@@@@@@@@@@",
"+@@@@@@@@@@@@@    @@@@@@@@@@@@@@",
"+@@@@@@@@@@@@@@   @@@@@@@@@@@@#@",
"+@@@@#####@@@@#   @#####@@@@@@#+",
"+@@@@#    @@@@#@       @@@@@@#++",
"+@@@@#    @@@@#@       @@@@@##++",
"+@@@@@@@@@@@@@@       @@@@@#@+++",
"+@@@@@@@@@@@##       @@@@@@#++++",
"+@@@@@@@@@@@@@       @@@@@#+++++",
"+@@@@@@@@@@@@@      @@@@@##+++++",
"+@@@@#    @@@@@@   @@@@@@#++++++",
"+@@@@#    @@@@@#   @@@@@#+++++++",
"+@@@@#    @@@@@#  @@@@@@@+++++++",
"+@@@@@@@@@@@@@@# @@@@@@@@@@@@@@@",
"+@@@@@@@@@@@@@#@ @@@@@@@@@@@@@@@",
"+@@@@@@@@@@@@#@  @@@@@@@@@@@@@@@",
".##########@@    @#############@",
".                               ",
".                               ",
".                               ",
".@###### ##@      ###    #####@ ",
".@##@@@@ ##@     @###   @##@@##@",
".@##     ##@     ####@  ###+++@@",
".@####@  ##@    @##@##  ###+++++",
".@##@@@  ##@    ##@@##@ ###@####",
".@##     ##@    ####### ###+@@##",
".@##     ######@#@   ##  #######",
".@##     ######@#@   ##  @####@#",
".                               ",
".                               ",
".@@@@@@@@@@@@@@@@@@@@@@@@@@@@@@@"};
