/* XPM */
static char * bzflag_xpm[] = {
"16 16 3 1",
" 	c None",
".	c #808080",
"+	c #000000",
"                ",
"                ",
"                ",
" .....   .......",
"+++++++. +++++++",
"+++..+++ ....+++",
"+++  .++    .++.",
"+++..++.   .+++ ",
"+++++++.   +++. ",
"+++...++  .+++  ",
"+++  .++..+++.  ",
"++++++++ +++++++",
"+++++++. +++++++",
"                ",
"                ",
"                "};
