/* XPM */
static char * bzflag_5_xpm[] = {
"48 48 5 1",
" 	c None",
".	c #FFFFFF",
"+	c #808080",
"@	c #C0C0C0",
"#	c #000000",
"................................................",
".+++++++++++++            ++++++++++++++++++   +",
"@+++++++++++++++++        ++++++++++++++++++++ +",
"@+++++++++++++++++++      ++++++++++++++++++++ +",
"@++++++++++++++++++++     ++++++++++++++++++#+ +",
"@+++++++++++++++++++++    ++++++++++++++++++#+ +",
"@+++++++######+++++++#    +########++++++++##  +",
"@+++++++#     +++++++++    +++++++++++++++##   +",
"@+++++++#      ++++++#+           ++++++++#+   +",
"@+++++++#     +++++++#+          ++++++++##    +",
"@+++++++#     +++++++#           ++++++++#     +",
"@+++++++++++++++++++#+          ++++++++#+     +",
"@+++++++++++++++++##+          ++++++++##      +",
"@+++++++++++++++++#+           ++++++++#+      +",
"@+++++++++++++++++++          ++++++++#+       +",
"@++++++++++++++++++++        ++++++++##        +",
"@+++++++######++++++++       ++++++++#+        +",
"@+++++++#      ++++++++     ++++++++##         +",
"@+++++++#      +++++++#    ++++++++##          +",
"@+++++++#      +++++++#+   ++++++++#+          +",
"@+++++++#     ++++++++#+  ++++++++++       +   +",
"@+++++++++++++++++++++#  +++++++++++++++++++++ +",
"@++++++++++++++++++++##  +++++++++++++++++++++ +",
"@++++++++++++++++++++#+  +++++++++++++++++++++ +",
"@++++++++++++++++++##+   +++++++++++++++++++++ +",
".++++++++++++++++###+    +++++++++++++++++++#+ +",
". ##############+++      +###################+ +",
".                                              +",
".                                              +",
".                                              +",
".                                              +",
". +######### ###+         ####+      ++####+   +",
". +######### ###+         ####+     +#######+  +",
". +###++++++ ###+        +#####    +####++###+ +",
". +###       ###+        ######+   +###+  +### +",
". +###       ###+        ##+###+   ####    +++ +",
". +######+   ###+       +##++###   ####        +",
". +#######   ###+       ### +###+  #### +##### +",
". +###++++   ###+       ##+++###+  #### +##### +",
". +###       ###+      +#########  ####  ++### +",
". +###       ###++++++ ##########+ +###+++#### +",
". +###       #########+##+    ###+  +######### +",
". +###       #########+##+    ####   +#####++# +",
".  +++       ++++++++++++     ++++     +++   + +",
".                                              +",
".                                              +",
".                                              +",
".+++++++++++++++++++++++++++++++++++++++++++++++"};
